<svg id="Laag_1" data-name="Laag 1" xmlns="http://www.w3.org/2000/svg" viewBox="0 0 25 25"><defs><style>.cls-1{fill:#0e1034;}</style></defs><g id="Group_302" data-name="Group 302"><g id="Group_301" data-name="Group 301"><path id="Path_247" data-name="Path 247" class="cls-1" d="M7.62,12h9.15a1,1,0,1,0,0-2H7.62a1,1,0,1,0,0,2Z"/></g><path id="Path_248" data-name="Path 248" class="cls-1" d="M4.57,18.09h5.86L16.32,21a1,1,0,0,0,1.36-.46,1,1,0,0,0,.11-.45v-2h2.64A4.07,4.07,0,0,0,24.5,14V7.93a4.07,4.07,0,0,0-4.07-4.07H4.57A4.07,4.07,0,0,0,.5,7.92V14A4.07,4.07,0,0,0,4.57,18.09Zm-2-10.17a2,2,0,0,1,2-2H20.43a2,2,0,0,1,2,2V14a2,2,0,0,1-2,2H16.77a1,1,0,0,0-1,1v1.4l-4.63-2.31a.88.88,0,0,0-.45-.11H4.57a2,2,0,0,1-2-2Z"/></g></svg>