<svg id="Laag_1" data-name="Laag 1" xmlns="http://www.w3.org/2000/svg" viewBox="0 0 25 25"><defs><style>.cls-1{fill:none;stroke:#0e1034;stroke-width:1.9px;}</style></defs><g id="user"><path id="Path_235" data-name="Path 235" class="cls-1" d="M12.4,12.43a4.28,4.28,0,0,0,4.28-4.29,4.16,4.16,0,0,0-1.25-3,4.3,4.3,0,0,0-6.07,0h0a4.16,4.16,0,0,0-1.25,3,4.28,4.28,0,0,0,4.29,4.29Z"/><path id="Path_236" data-name="Path 236" class="cls-1" d="M19.9,17a10.93,10.93,0,0,0-.15-1.13,8.84,8.84,0,0,0-.27-1.13,5.81,5.81,0,0,0-.47-1,3.93,3.93,0,0,0-.7-.92,3.26,3.26,0,0,0-1-.63A3.35,3.35,0,0,0,16,11.94a1.3,1.3,0,0,0-.7.3l-.73.47a4.39,4.39,0,0,1-.94.41,3.62,3.62,0,0,1-2.3,0,4.54,4.54,0,0,1-.93-.41l-.73-.47a1.3,1.3,0,0,0-.7-.3,3.35,3.35,0,0,0-1.29.23,3.26,3.26,0,0,0-1,.63,3.68,3.68,0,0,0-.7.92,5.19,5.19,0,0,0-.47,1,8.88,8.88,0,0,0-.28,1.13c-.06.38-.11.75-.14,1.13s0,.69,0,1A3,3,0,0,0,6,20.32a3.15,3.15,0,0,0,2.26.82h8.58a3.15,3.15,0,0,0,2.26-.82,3,3,0,0,0,.88-2.24Q19.93,17.54,19.9,17Z"/></g></svg>