<svg id="Laag_1" data-name="Laag 1" xmlns="http://www.w3.org/2000/svg" viewBox="0 0 25 25"><defs><style>.cls-1{fill:none;stroke:#0e1034;stroke-width:2px;}</style></defs><path id="gear" class="cls-1" d="M22.52,14.84l-2-1.54a7.22,7.22,0,0,0,0-1.61l2-1.53a.94.94,0,0,0,.23-1.22l-2-3.52A1,1,0,0,0,19.53,5l-2.31.93a8,8,0,0,0-1.39-.81l-.35-2.45a1,1,0,0,0-.94-.82H10.46a.94.94,0,0,0-.94.81L9.16,5.11a9.07,9.07,0,0,0-1.38.81L5.46,5a.93.93,0,0,0-1.16.42l-2,3.53a1,1,0,0,0,.24,1.23l2,1.53a7.22,7.22,0,0,0,0,1.61l-2,1.53a1,1,0,0,0-.23,1.22l2,3.53A1,1,0,0,0,5.47,20l2.3-.93a7.75,7.75,0,0,0,1.39.81l.36,2.45a.94.94,0,0,0,.94.82h4.08a1,1,0,0,0,.94-.81l.35-2.46a9.17,9.17,0,0,0,1.39-.81l2.32.93a.94.94,0,0,0,1.17-.42l2-3.54A1,1,0,0,0,22.52,14.84Zm-10,2.1a4.44,4.44,0,1,1,4.44-4.44,4.43,4.43,0,0,1-4.44,4.44Z"/></svg>