<svg id="statistics_1_" data-name="statistics (1)" xmlns="http://www.w3.org/2000/svg" width="48" height="48" viewBox="0 0 48 48">
  <g id="Group_43" data-name="Group 43">
    <g id="Group_42" data-name="Group 42">
      <rect id="Rectangle_42" data-name="Rectangle 42" width="48" height="2" transform="translate(0 46)" fill="#0e1034"/>
      <path id="Path_6" data-name="Path 6" d="M24.8,304h8a.8.8,0,0,0,.8-.8V288.8a.8.8,0,0,0-.8-.8h-8a.8.8,0,0,0-.8.8v14.4A.8.8,0,0,0,24.8,304Zm.8-14.4H32v12.8H25.6Z" transform="translate(-21.6 -259.2)" fill="#0e1034"/>
      <path id="Path_7" data-name="Path 7" d="M248.8,217.6h8a.8.8,0,0,0,.8-.8v-24a.8.8,0,0,0-.8-.8h-8a.8.8,0,0,0-.8.8v24A.8.8,0,0,0,248.8,217.6Zm.8-24H256V216h-6.4Z" transform="translate(-223.2 -172.8)" fill="#0e1034"/>
      <path id="Path_8" data-name="Path 8" d="M136.8,131.2h8a.8.8,0,0,0,.8-.8V96.8a.8.8,0,0,0-.8-.8h-8a.8.8,0,0,0-.8.8v33.6A.8.8,0,0,0,136.8,131.2Zm.8-33.6H144v32h-6.4Z" transform="translate(-122.4 -86.4)" fill="#0e1034"/>
      <path id="Path_9" data-name="Path 9" d="M360.8,44.8h8a.8.8,0,0,0,.8-.8V.8a.8.8,0,0,0-.8-.8h-8a.8.8,0,0,0-.8.8V44A.8.8,0,0,0,360.8,44.8Zm.8-43.2H368V43.2h-6.4Z" transform="translate(-324)" fill="#0e1034"/>
    </g>
  </g>
</svg>
