<svg xmlns="http://www.w3.org/2000/svg" width="48.312" height="48" viewBox="0 0 48.312 48">
  <g id="Group_334" data-name="Group 334" transform="translate(-337 -828)">
    <g id="presentation" transform="translate(337 826.5)">
      <g id="Group_9" data-name="Group 9" transform="translate(0 1.5)">
        <g id="Group_8" data-name="Group 8">
          <path id="Path_4" data-name="Path 4" d="M45.813,1.5H2.5a2.5,2.5,0,1,0,0,5V40.65a.833.833,0,0,0,.833.833H13.26L7.679,48.459,8.98,49.5l6.414-8.017h7.929V43.3a2.5,2.5,0,1,0,1.666,0V41.483h7.929L39.332,49.5l1.3-1.041-5.581-6.976H44.98a.833.833,0,0,0,.833-.833V6.5a2.5,2.5,0,0,0,0-5ZM24.156,46.48a.833.833,0,1,1,.833-.833A.833.833,0,0,1,24.156,46.48Zm19.991-6.664H4.165V6.5H44.148ZM45.813,4.832H2.5a.833.833,0,1,1,0-1.666H45.813a.833.833,0,1,1,0,1.666Z" transform="translate(0 -1.5)" fill="#0e1034"/>
        </g>
      </g>
      <g id="Group_11" data-name="Group 11" transform="translate(7.447 28.423)">
        <g id="Group_10" data-name="Group 10" transform="translate(0 0)">
          <rect id="Rectangle_26" data-name="Rectangle 26" width="14" height="1" transform="translate(-0.447 0.077)" fill="#0e1034"/>
        </g>
      </g>
      <g id="Group_13" data-name="Group 13" transform="translate(7.447 31.287)">
        <g id="Group_12" data-name="Group 12" transform="translate(0 0)">
          <rect id="Rectangle_27" data-name="Rectangle 27" width="14" height="2" transform="translate(-0.447 0.213)" fill="#0e1034"/>
        </g>
      </g>
      <g id="Group_15" data-name="Group 15" transform="translate(7.447 34.724)">
        <g id="Group_14" data-name="Group 14" transform="translate(0 0)">
          <rect id="Rectangle_28" data-name="Rectangle 28" width="11" height="2" transform="translate(-0.447 -0.224)" fill="#0e1034"/>
        </g>
      </g>
      <g id="Group_17" data-name="Group 17" transform="translate(14.321 24.986)">
        <g id="Group_16" data-name="Group 16" transform="translate(0 0)">
          <rect id="Rectangle_29" data-name="Rectangle 29" width="7" height="2" transform="translate(-0.321 -0.486)" fill="#0e1034"/>
        </g>
      </g>
      <g id="Group_19" data-name="Group 19" transform="translate(27.496 12.957)">
        <g id="Group_18" data-name="Group 18" transform="translate(0 0)">
          <rect id="Rectangle_30" data-name="Rectangle 30" width="14" height="2" transform="translate(-0.496 -0.457)" fill="#0e1034"/>
        </g>
      </g>
      <g id="Group_21" data-name="Group 21" transform="translate(27.496 16.393)">
        <g id="Group_20" data-name="Group 20" transform="translate(0 0)">
          <rect id="Rectangle_31" data-name="Rectangle 31" width="14" height="2" transform="translate(-0.496 0.107)" fill="#0e1034"/>
        </g>
      </g>
      <g id="Group_23" data-name="Group 23" transform="translate(27.496 19.83)">
        <g id="Group_22" data-name="Group 22" transform="translate(0 0)">
          <rect id="Rectangle_32" data-name="Rectangle 32" width="10" height="2" transform="translate(-0.496 -0.33)" fill="#0e1034"/>
        </g>
      </g>
      <g id="Group_25" data-name="Group 25" transform="translate(34.37 10.092)">
        <g id="Group_24" data-name="Group 24" transform="translate(0 0)">
          <rect id="Rectangle_33" data-name="Rectangle 33" width="7" height="1" transform="translate(-0.37 0.408)" fill="#0e1034"/>
        </g>
      </g>
      <g id="Group_27" data-name="Group 27" transform="translate(7.497 8.997)">
        <g id="Group_26" data-name="Group 26">
          <path id="Path_5" data-name="Path 5" d="M78.664,73.5a6.664,6.664,0,1,0,6.664,6.664A6.664,6.664,0,0,0,78.664,73.5Zm.858,1.746a4.992,4.992,0,0,1,3.17,1.972l-3.2,1.6Zm-3.738.842a4.985,4.985,0,0,1,2.077-.847l-.03,4.59-3.249,3.2A4.985,4.985,0,0,1,75.783,76.088Zm4.337,8.856a4.972,4.972,0,0,1-4.372-.729l3.422-3.374,4.272-2.137A5,5,0,0,1,80.121,84.944Z" transform="translate(-72 -73.5)" fill="#0e1034"/>
        </g>
      </g>
      <g id="Group_29" data-name="Group 29" transform="translate(25.777 32.433)">
        <g id="Group_28" data-name="Group 28" transform="translate(0 0)">
          <rect id="Rectangle_34" data-name="Rectangle 34" width="1" height="4" transform="translate(0.223 0.067)" fill="#0e1034"/>
        </g>
      </g>
      <g id="Group_31" data-name="Group 31" transform="translate(38.952 30.714)">
        <g id="Group_30" data-name="Group 30" transform="translate(0 0)">
          <rect id="Rectangle_35" data-name="Rectangle 35" width="2" height="6" transform="translate(0.048 -0.214)" fill="#0e1034"/>
        </g>
      </g>
      <g id="Group_33" data-name="Group 33" transform="translate(29.214 29.569)">
        <g id="Group_32" data-name="Group 32" transform="translate(0 0)">
          <rect id="Rectangle_36" data-name="Rectangle 36" width="2" height="7" transform="translate(-0.214 -0.068)" fill="#0e1034"/>
        </g>
      </g>
      <g id="Group_35" data-name="Group 35" transform="translate(32.651 26.704)">
        <g id="Group_34" data-name="Group 34" transform="translate(0 0)">
          <rect id="Rectangle_37" data-name="Rectangle 37" width="1" height="10" transform="translate(0.349 -0.204)" fill="#0e1034"/>
        </g>
      </g>
      <g id="Group_37" data-name="Group 37" transform="translate(36.088 28.996)">
        <g id="Group_36" data-name="Group 36" transform="translate(0 0)">
          <rect id="Rectangle_38" data-name="Rectangle 38" width="1" height="8" transform="translate(-0.088 -0.496)" fill="#0e1034"/>
        </g>
      </g>
      <g id="Group_39" data-name="Group 39" transform="translate(10.884 24.986)">
        <g id="Group_38" data-name="Group 38" transform="translate(0 0)">
          <rect id="Rectangle_39" data-name="Rectangle 39" width="2" height="2" transform="translate(0.116 -0.486)" fill="#0e1034"/>
        </g>
      </g>
      <g id="Group_41" data-name="Group 41" transform="translate(30.933 10.092)">
        <g id="Group_40" data-name="Group 40" transform="translate(0 0)">
          <rect id="Rectangle_40" data-name="Rectangle 40" width="2" height="1" transform="translate(0.067 0.408)" fill="#0e1034"/>
        </g>
      </g>
    </g>
  </g>
</svg>
